<?xml version="1.0" encoding="UTF-8" standalone="no"?><!DOCTYPE svg PUBLIC "-//W3C//DTD SVG 1.1//EN" "http://www.w3.org/Graphics/SVG/1.1/DTD/svg11.dtd"><svg width="100%" height="100%" viewBox="0 0 140 123" version="1.1" xmlns="http://www.w3.org/2000/svg" xmlns:xlink="http://www.w3.org/1999/xlink" xml:space="preserve" xmlnsserif="http://www.serif.com/" style="fill-rule:evenodd;clip-rule:evenodd;stroke-linejoin:round;stroke-miterlimit:2;"><g><path d="M107.256,109.623c-1.697,0 -3.073,-1.489 -3.073,-3.326c0,-1.25 0,-2.785 0,-4.489c0,-10.152 2.765,-20.08 7.948,-28.542c0.996,-1.629 1.576,-3.581 1.576,-5.678c0,-1.795 -0.424,-3.483 -1.175,-4.951c-0.772,-1.532 -1.176,-3.248 -1.176,-4.993l0,-0.362c0,-5.688 4.268,-10.306 9.525,-10.306l0.061,0c5.229,0.036 9.464,4.64 9.464,10.306l0,0.362c0,1.745 -0.405,3.461 -1.176,4.993c-0.751,1.468 -1.176,3.156 -1.176,4.951c0,2.097 0.58,4.049 1.577,5.678c5.183,8.462 7.947,18.39 7.947,28.542c0.001,1.704 0.001,3.239 0.001,4.489c0,1.837 -1.376,3.326 -3.074,3.326l-13.624,0l-13.625,0Z"/><path d="M54.273,109.623c-2.189,0 -3.963,-1.92 -3.963,-4.288c0,-1.611 0,-3.59 0.001,-5.786c0,-13.089 3.564,-25.887 10.246,-36.797c1.284,-2.099 2.033,-4.616 2.033,-7.32c0,-2.313 -0.548,-4.489 -1.516,-6.382c-0.995,-1.974 -1.516,-4.187 -1.516,-6.436l0,-0.468c0,-7.332 5.502,-13.285 12.279,-13.285l0.079,0c6.741,0.046 12.2,5.981 12.2,13.285l0,0.468c0,2.249 -0.521,4.462 -1.516,6.436c-0.968,1.893 -1.515,4.069 -1.515,6.382c0,2.704 0.748,5.221 2.032,7.32c6.682,10.91 10.246,23.708 10.246,36.797c0.001,2.196 0.001,4.175 0.001,5.786c0,2.368 -1.774,4.288 -3.963,4.288l-17.564,0l-17.564,0Z"/><path d="M15.327,109.623c-1.353,0 -2.45,-1.187 -2.45,-2.651c0,-0.996 0,-2.219 0.001,-3.577c0,-8.09 2.203,-16.002 6.334,-22.746c0.794,-1.298 1.256,-2.853 1.256,-4.525c0,-1.43 -0.339,-2.775 -0.937,-3.945c-0.615,-1.221 -0.937,-2.589 -0.937,-3.979l0,-0.289c0,-4.533 3.401,-8.213 7.591,-8.213l0.049,0.001c4.166,0.028 7.541,3.697 7.541,8.212l0,0.289c0,1.39 -0.322,2.758 -0.937,3.979c-0.598,1.17 -0.937,2.515 -0.937,3.945c0,1.672 0.463,3.227 1.256,4.525c4.131,6.744 6.334,14.656 6.334,22.746c0.001,1.358 0.001,2.581 0.001,3.577c0,1.464 -1.097,2.651 -2.45,2.651l-10.857,0l-10.858,0Z"/><g id="Layer1"><path d="M128.458,14.756c0,0 -16.339,7.466 -19.73,9.015c-0.392,0.18 -0.839,0.2 -1.246,0.057c-4.498,-1.583 -31.546,-11.101 -36.667,-12.903c-0.523,-0.184 -1.104,-0.096 -1.548,0.235c-6.942,5.164 -62.337,46.371 -62.337,46.371l-6.136,-6.8c0,0 59.785,-44.583 67.054,-50.003c0.449,-0.336 1.038,-0.422 1.565,-0.231c5.205,1.893 32.84,11.94 37.395,13.596c0.407,0.149 0.857,0.132 1.252,-0.046c3.105,-1.395 16.869,-7.582 16.869,-7.582c0,0 -0.328,-0.772 -0.706,-1.659c-0.231,-0.542 -0.156,-1.165 0.197,-1.636c0.353,-0.472 0.93,-0.719 1.515,-0.651c2.367,0.279 5.361,0.631 5.361,0.631c0,0 3.509,0.549 6.048,0.946c0.561,0.087 1.038,0.454 1.267,0.974c0.23,0.519 0.179,1.119 -0.135,1.593c-1.497,2.26 -3.628,5.478 -3.628,5.478c0,0 -1.513,2.381 -2.749,4.325c-0.32,0.504 -0.886,0.796 -1.482,0.763c-0.596,-0.032 -1.128,-0.383 -1.392,-0.918c-0.414,-0.839 -0.767,-1.555 -0.767,-1.555Z"/></g><path d="M0.236,1.856c0,-0.442 0.176,-0.866 0.489,-1.179c0.312,-0.312 0.736,-0.488 1.178,-0.488c1.535,0 3.799,0 5.333,0c0.442,0 0.866,0.176 1.179,0.488c0.312,0.313 0.488,0.737 0.488,1.179c0,14.029 0,111.884 0,111.884l129.343,0c0.92,0 1.666,0.747 1.666,1.667c0,1.534 0,3.799 0,5.333c0,0.921 -0.746,1.667 -1.666,1.667l-3.404,0l-125.939,0l-7,0c-0.442,0 -0.866,-0.176 -1.178,-0.488c-0.313,-0.313 -0.489,-0.737 -0.489,-1.179c0,-13.539 0,-105.345 0,-118.884Z"/></g></svg>